<svg width="113" height="103" viewBox="0 0 113 103" fill="none" xmlns="http://www.w3.org/2000/svg">
<path d="M106.627 0H6.37301C2.85687 0 0 3.2437 0 7.23595V95.7641C0 99.7563 2.85687 103 6.37301 103H106.627C110.143 103 113 99.7563 113 95.7641V7.23595C112.956 3.2437 110.143 0 106.627 0ZM100.254 14.4719V79.6453L85.706 59.5843C85.1785 58.8857 84.2116 58.736 83.5523 59.2849L66.6309 73.3077L37.4909 41.1701C37.1392 40.8207 36.6997 40.6211 36.2163 40.671C35.7767 40.7209 35.3812 40.9704 35.0735 41.4196L12.746 77.749V14.4719H100.254ZM62.0599 41.5693C62.0599 35.0819 66.6748 29.7922 72.3886 29.7922C78.1023 29.7922 82.7172 35.0819 82.7172 41.5693C82.7172 48.0567 78.1023 53.2965 72.3886 53.2965C66.7188 53.2965 62.0599 48.0068 62.0599 41.5693Z" fill="#103356"/>
</svg>
