<svg width="31" height="23" viewBox="0 0 31 23" fill="none" xmlns="http://www.w3.org/2000/svg">
<path d="M27.848 0H3.84584C2.19698 0 0.861324 1.29369 0.861324 2.87543L0.846924 20.1246C0.846924 21.7063 2.19698 23 3.84584 23H27.848C29.4969 23 30.8469 21.7063 30.8469 20.1246V2.87543C30.8469 1.29369 29.4969 0 27.848 0ZM27.2468 6.10964L16.6426 12.4642C16.4033 12.6054 16.1279 12.6801 15.8469 12.6801C15.566 12.6801 15.2905 12.6054 15.0513 12.4642L4.44707 6.10964C4.29875 6.02772 4.16917 5.91801 4.06608 5.78704C3.96298 5.65608 3.88848 5.50656 3.84701 5.3474C3.80554 5.18824 3.79796 5.0227 3.82473 4.86067C3.85149 4.69864 3.91204 4.54344 4.00278 4.40433C4.09351 4.26522 4.21256 4.14505 4.35282 4.051C4.49308 3.95695 4.65168 3.89094 4.81915 3.85691C4.98662 3.82288 5.15953 3.82153 5.32756 3.85295C5.49558 3.88436 5.65528 3.94789 5.79712 4.03975L15.8469 10.0631L25.8967 4.03975C26.0386 3.94789 26.1983 3.88436 26.3663 3.85295C26.5343 3.82153 26.7072 3.82288 26.8747 3.85691C27.0422 3.89094 27.2008 3.95695 27.341 4.051C27.4813 4.14505 27.6003 4.26522 27.6911 4.40433C27.7818 4.54344 27.8424 4.69864 27.8691 4.86067C27.8959 5.0227 27.8883 5.18824 27.8468 5.3474C27.8054 5.50656 27.7309 5.65608 27.6278 5.78704C27.5247 5.91801 27.3951 6.02772 27.2468 6.10964Z" fill="#E3E3E3"/>
</svg>
