<svg width="25" height="25" viewBox="0 0 25 25" fill="none" xmlns="http://www.w3.org/2000/svg">
<path d="M12.8469 0.119873C9.5869 0.119873 9.17995 0.134873 7.89992 0.191873C6.62192 0.251873 5.75192 0.452873 4.98692 0.749873C4.19792 1.05587 3.52793 1.46687 2.86092 2.13387C2.19392 2.80088 1.78193 3.46988 1.47692 4.25987C1.17992 5.02487 0.977924 5.89487 0.918924 7.17287C0.858924 8.4529 0.846924 8.85985 0.846924 12.1199C0.846924 15.3799 0.861924 15.7868 0.918924 17.0669C0.978924 18.3439 1.17992 19.2149 1.47692 19.9799C1.78292 20.7679 2.19392 21.4388 2.86092 22.1059C3.52793 22.7719 4.19693 23.1848 4.98692 23.4899C5.75292 23.7859 6.62292 23.9888 7.89992 24.0479C9.17995 24.1079 9.5869 24.1199 12.8469 24.1199C16.1069 24.1199 16.5139 24.1049 17.7939 24.0479C19.0709 23.9879 19.9419 23.7859 20.7069 23.4899C21.4949 23.1839 22.1659 22.7719 22.8329 22.1059C23.4989 21.4388 23.9119 20.7709 24.2169 19.9799C24.5129 19.2149 24.7159 18.3439 24.7749 17.0669C24.8349 15.7868 24.8469 15.3799 24.8469 12.1199C24.8469 8.85985 24.8319 8.4529 24.7749 7.17287C24.7149 5.89587 24.5129 5.02388 24.2169 4.25987C23.9109 3.47087 23.4989 2.80088 22.8329 2.13387C22.1659 1.46687 21.4979 1.05488 20.7069 0.749873C19.9419 0.452873 19.0709 0.250873 17.7939 0.191873C16.5139 0.131873 16.1069 0.119873 12.8469 0.119873ZM12.8469 2.27987C16.0499 2.27987 16.4319 2.29587 17.6969 2.35088C18.8669 2.40587 19.5019 2.59988 19.9239 2.76587C20.4859 2.98287 20.8839 3.24287 21.3059 3.66188C21.7249 4.08188 21.9849 4.48088 22.2019 5.04287C22.3659 5.46488 22.5619 6.09987 22.6149 7.26987C22.6719 8.53585 22.6849 8.91587 22.6849 12.1199C22.6849 15.3239 22.6699 15.7049 22.6109 16.9699C22.5499 18.1399 22.3549 18.7748 22.1899 19.1969C21.9659 19.7588 21.7109 20.1569 21.2909 20.5789C20.8719 20.9978 20.4669 21.2579 19.9109 21.4748C19.4909 21.6389 18.8459 21.8348 17.6759 21.8879C16.4019 21.9449 16.0269 21.9578 12.8169 21.9578C9.60595 21.9578 9.23095 21.9428 7.95792 21.8839C6.78692 21.8228 6.14192 21.6278 5.72192 21.4628C5.15292 21.2389 4.76192 20.9839 4.34292 20.5639C3.92192 20.1449 3.65292 19.7399 3.44292 19.1839C3.27792 18.7639 3.08393 18.1189 3.02292 16.9489C2.97792 15.6889 2.96192 15.2999 2.96192 12.1049C2.96192 8.9089 2.97792 8.5189 3.02292 7.24388C3.08393 6.07388 3.27792 5.42987 3.44292 5.00987C3.65292 4.43987 3.92192 4.04987 4.34292 3.62888C4.76192 3.20987 5.15292 2.93987 5.72192 2.73087C6.14192 2.56487 6.77292 2.36987 7.94292 2.30987C9.2179 2.26487 9.5929 2.24987 12.8019 2.24987L12.8469 2.27987ZM12.8469 5.95787C9.44192 5.95787 6.68492 8.71787 6.68492 12.1199C6.68492 15.5249 9.44492 18.2819 12.8469 18.2819C16.2519 18.2819 19.0089 15.5219 19.0089 12.1199C19.0089 8.71487 16.2489 5.95787 12.8469 5.95787ZM12.8469 16.1198C10.6369 16.1198 8.84695 14.3299 8.84695 12.1199C8.84695 9.90985 10.6369 8.1199 12.8469 8.1199C15.0569 8.1199 16.8469 9.90985 16.8469 12.1199C16.8469 14.3299 15.0569 16.1198 12.8469 16.1198ZM20.6929 5.71487C20.6929 6.50987 20.0469 7.15487 19.2529 7.15487C18.4579 7.15487 17.8129 6.50888 17.8129 5.71487C17.8129 4.92087 18.4589 4.27587 19.2529 4.27587C20.0459 4.27487 20.6929 4.92087 20.6929 5.71487Z" fill="#E3E3E3"/>
</svg>
