<svg width="25" height="18" viewBox="0 0 25 18" fill="none" xmlns="http://www.w3.org/2000/svg">
<path d="M24.3449 3.3058C24.2093 2.79507 23.942 2.32893 23.5695 1.95406C23.1971 1.57919 22.7327 1.30874 22.2229 1.1698C20.3519 0.664795 12.8469 0.664795 12.8469 0.664795C12.8469 0.664795 5.34192 0.664795 3.46992 1.1698C2.96033 1.30898 2.49622 1.57953 2.124 1.95437C1.75178 2.32922 1.48452 2.79524 1.34892 3.3058C0.846924 5.1898 0.846924 9.1198 0.846924 9.1198C0.846924 9.1198 0.846924 13.0498 1.34892 14.9338C1.48451 15.4445 1.7519 15.9107 2.12432 16.2855C2.49673 16.6604 2.9611 16.9308 3.47093 17.0698C5.34192 17.5748 12.8469 17.5748 12.8469 17.5748C12.8469 17.5748 20.3519 17.5748 22.2239 17.0698C22.7338 16.931 23.1982 16.6605 23.5706 16.2857C23.9431 15.9107 24.2104 15.4445 24.3459 14.9338C24.8469 13.0498 24.8469 9.1198 24.8469 9.1198C24.8469 9.1198 24.8469 5.1898 24.3449 3.3058ZM10.3919 12.6878V5.55183L16.6649 9.1198L10.3919 12.6878Z" fill="#E3E3E3"/>
</svg>
